<svg width="340" height="368" viewBox="0 0 340 368" fill="none" xmlns="http://www.w3.org/2000/svg">
<path fill-rule="evenodd" clip-rule="evenodd" d="M0 30C0 13.4314 13.4315 0 30 0C123.333 0 216.667 0 310 0C326.569 0 340 13.4315 340 30C340 132.667 340 235.333 340 338C340 354.569 326.569 368 310 368C216.667 368 123.333 368 30 368C13.4314 368 0 354.569 0 338C0 235.333 0 132.667 0 30Z" fill="#3E392A"/>
<path fill-rule="evenodd" clip-rule="evenodd" d="M116.5 55.5C116.5 52.833 116.5 50.167 116.5 47.5C95.167 47.5 73.833 47.5 52.5 47.5C52.5 49.5 52.5 51.5 52.5 53.5C51.532 51.393 51.198 49.059 51.5 46.5C73.5 46.5 95.5 46.5 117.5 46.5C117.81 49.713 117.477 52.713 116.5 55.5Z" fill="#959594"/>
<path fill-rule="evenodd" clip-rule="evenodd" d="M116.5 55.5C113.621 72.713 103.621 83.046 86.5 86.5C86.5 98.833 86.5 111.167 86.5 123.5C90.97 124.486 95.637 124.819 100.5 124.5C100.5 126.5 100.5 128.5 100.5 130.5C88.833 130.5 77.167 130.5 65.5 130.5C65.5 128.5 65.5 126.5 65.5 124.5C70.363 124.819 75.03 124.486 79.5 123.5C80.495 111.011 80.829 98.344 80.5 85.5C79.167 85.5 77.833 85.5 76.5 85.5C61.754 80.051 53.754 69.384 52.5 53.5C52.5 51.5 52.5 49.5 52.5 47.5C73.833 47.5 95.167 47.5 116.5 47.5C116.5 50.167 116.5 52.833 116.5 55.5Z" fill="#F7F4F5"/>
<path fill-rule="evenodd" clip-rule="evenodd" d="M59.5 54.5C76.534 53.848 93.2 54.515 109.5 56.5C105.006 72.833 94.339 80.333 77.5 79C66.737 74.298 60.737 66.131 59.5 54.5Z" fill="#DFB933"/>
<path fill-rule="evenodd" clip-rule="evenodd" d="M189.5 102.5C183.167 103.167 176.833 103.833 170.5 104.5C169.957 104.44 169.624 104.107 169.5 103.5C176.134 102.503 182.8 102.17 189.5 102.5Z" fill="#DFB933"/>
<path fill-rule="evenodd" clip-rule="evenodd" d="M76.5 85.5C77.833 85.5 79.167 85.5 80.5 85.5C80.829 98.344 80.495 111.011 79.5 123.5C79.5 111.167 79.5 98.833 79.5 86.5C78.209 86.737 77.209 86.404 76.5 85.5Z" fill="#A2A2A0"/>
<path fill-rule="evenodd" clip-rule="evenodd" d="M203.5 112.5C198.178 112.98 192.845 113.313 187.5 113.5C184.575 113.54 181.909 112.707 179.5 111C176.079 109.301 173.079 107.135 170.5 104.5C176.833 103.833 183.167 103.167 189.5 102.5C201.754 100.403 211.587 94.403 219 84.5C222.103 79.294 224.936 73.96 227.5 68.5C232.459 90.32 224.459 104.986 203.5 112.5Z" fill="#DFB933"/>
<path fill-rule="evenodd" clip-rule="evenodd" d="M203.5 112.5C198.245 114.524 192.911 114.857 187.5 113.5C192.845 113.313 198.178 112.98 203.5 112.5Z" fill="#DFB933"/>
<path fill-rule="evenodd" clip-rule="evenodd" d="M86.5 123.5C91.5 123.5 96.5 123.5 101.5 123.5C101.802 126.059 101.468 128.393 100.5 130.5C100.5 128.5 100.5 126.5 100.5 124.5C95.637 124.819 90.97 124.486 86.5 123.5Z" fill="#959594"/>
<path fill-rule="evenodd" clip-rule="evenodd" d="M174.5 124.5C179.262 124.698 183.428 126.365 187 129.5C197.871 120.954 202.871 123.287 202 136.5C200.562 137.718 198.895 138.385 197 138.5C193.637 137.567 190.471 136.234 187.5 134.5C184.721 135.389 182.055 136.556 179.5 138C173.979 139.812 171.312 137.812 171.5 132C171.548 129.078 172.548 126.578 174.5 124.5Z" fill="#F0EFEF"/>
<path fill-rule="evenodd" clip-rule="evenodd" d="M79.5 123.5C75.03 124.486 70.363 124.819 65.5 124.5C65.5 126.5 65.5 128.5 65.5 130.5C64.532 128.393 64.198 126.059 64.5 123.5C69.5 123.5 74.5 123.5 79.5 123.5Z" fill="#989797"/>
<path fill-rule="evenodd" clip-rule="evenodd" d="M169.5 131.5C166.211 132.374 162.877 133.041 159.5 133.5C162.661 131.32 165.994 130.653 169.5 131.5Z" fill="#DFB933"/>
<path fill-rule="evenodd" clip-rule="evenodd" d="M169.5 131.5C171.84 159.38 170.34 187.046 165 214.5C164.692 215.308 164.192 215.975 163.5 216.5C156.451 189.38 142.117 167.047 120.5 149.5C121.178 146.465 123.178 144.799 126.5 144.5C127.442 144.608 128.275 144.941 129 145.5C131.17 143.177 133.67 141.51 136.5 140.5C143.964 137.568 151.631 135.235 159.5 133.5C162.877 133.041 166.211 132.374 169.5 131.5Z" fill="#DFB933"/>
<path fill-rule="evenodd" clip-rule="evenodd" d="M58.5 132.5C66.735 138.559 74.569 145.225 82 152.5C89.308 147.359 96.474 142.026 103.5 136.5C104.192 143.99 103.192 151.324 100.5 158.5C92.167 164.333 83.833 170.167 75.5 176C72.315 176.388 69.315 175.721 66.5 174C63.999 160.168 61.333 146.335 58.5 132.5Z" fill="#F6D8C0"/>
<path fill-rule="evenodd" clip-rule="evenodd" d="M187.5 234.5C184.19 234.461 181.524 235.794 179.5 238.5C178.707 237.645 179.04 236.811 180.5 236C178.893 236.019 177.226 236.185 175.5 236.5C175.657 237.873 175.49 239.207 175 240.5C174.86 238.006 174.026 235.506 172.5 233C174.688 221.224 176.688 209.39 178.5 197.5C178.5 196.833 178.5 196.167 178.5 195.5C181.901 191.581 183.567 186.914 183.5 181.5C184.267 177.851 185.6 174.518 187.5 171.5C190.383 167.421 193.05 163.088 195.5 158.5C196.474 156.257 196.808 153.924 196.5 151.5C199.564 144.37 203.397 137.703 208 131.5C232.413 142.957 256.579 154.79 280.5 167C245.445 183.885 214.445 206.385 187.5 234.5Z" fill="#DFB933"/>
<path fill-rule="evenodd" clip-rule="evenodd" d="M136.5 140.5C133.67 141.51 131.17 143.177 129 145.5C128.275 144.941 127.442 144.608 126.5 144.5C123.178 144.799 121.178 146.465 120.5 149.5C117.821 149.475 116.488 148.142 116.5 145.5C123.262 144.143 129.929 142.476 136.5 140.5Z" fill="#DFB933"/>
<path fill-rule="evenodd" clip-rule="evenodd" d="M104.5 161.5C103.523 164.287 103.19 167.287 103.5 170.5C102.353 166.354 102.186 162.02 103 157.5C104.188 158.563 104.688 159.897 104.5 161.5Z" fill="#DFB933"/>
<path fill-rule="evenodd" clip-rule="evenodd" d="M196.5 151.5C196.808 153.924 196.474 156.257 195.5 158.5C193.05 163.088 190.383 167.421 187.5 171.5C189.906 164.494 192.906 157.827 196.5 151.5Z" fill="#DFB933"/>
<path fill-rule="evenodd" clip-rule="evenodd" d="M104.5 161.5C106.718 165.465 108.384 169.798 109.5 174.5C111.193 172.973 113.027 171.64 115 170.5C112.782 178.989 109.782 187.323 106 195.5C104.694 187.222 103.861 178.889 103.5 170.5C103.19 167.287 103.523 164.287 104.5 161.5Z" fill="#DFB933"/>
<path fill-rule="evenodd" clip-rule="evenodd" d="M183.5 181.5C183.567 186.914 181.901 191.581 178.5 195.5C180.18 190.743 181.847 186.077 183.5 181.5Z" fill="#DFB933"/>
<path fill-rule="evenodd" clip-rule="evenodd" d="M178.5 197.5C176.688 209.39 174.688 221.224 172.5 233C174.026 235.506 174.86 238.006 175 240.5C175.49 239.207 175.657 237.873 175.5 236.5C177.226 236.185 178.893 236.019 180.5 236C179.04 236.811 178.707 237.645 179.5 238.5C181.524 235.794 184.19 234.461 187.5 234.5C180.955 241.881 174.621 249.548 168.5 257.5C168.383 236.868 171.716 216.868 178.5 197.5Z" fill="#DFB933"/>
<path fill-rule="evenodd" clip-rule="evenodd" d="M238.5 242.5C237.833 252.167 237.167 261.833 236.5 271.5C236.168 261.478 236.501 251.478 237.5 241.5C238.107 241.624 238.44 241.957 238.5 242.5Z" fill="#DFB933"/>
<path fill-rule="evenodd" clip-rule="evenodd" d="M238.5 242.5C242.094 253.015 245.094 263.682 247.5 274.5C243.738 274.691 240.071 275.358 236.5 276.5C234.143 276.663 231.81 276.497 229.5 276C232.106 275.208 234.106 273.708 235.5 271.5C235.833 271.5 236.167 271.5 236.5 271.5C237.167 261.833 237.833 252.167 238.5 242.5Z" fill="#DFB933"/>
<path fill-rule="evenodd" clip-rule="evenodd" d="M235.5 271.5C234.106 273.708 232.106 275.208 229.5 276C231.81 276.497 234.143 276.663 236.5 276.5C227.057 279.949 217.39 282.949 207.5 285.5C206.508 285.672 205.842 285.338 205.5 284.5C215.529 280.16 225.529 275.826 235.5 271.5Z" fill="#DFB933"/>
<path fill-rule="evenodd" clip-rule="evenodd" d="M142.5 296.5C150.754 296.72 158.92 297.387 167 298.5C168.276 308.77 170.109 318.937 172.5 329C172.355 329.772 172.022 330.439 171.5 331C157.141 333.843 142.808 336.51 128.5 339C136.887 330.949 144.887 322.615 152.5 314C148.528 308.529 145.194 302.695 142.5 296.5Z" fill="#F7D9C2"/>
</svg>
